<?xml version="1.0" encoding="utf-8"?>
<!-- Svg Vector Icons : http://www.onlinewebfonts.com/icon -->
<!DOCTYPE svg PUBLIC "-//W3C//DTD SVG 1.1//EN" "http://www.w3.org/Graphics/SVG/1.1/DTD/svg11.dtd">
<svg version="1.1" xmlns="http://www.w3.org/2000/svg" xmlns:xlink="http://www.w3.org/1999/xlink" x="0px" y="0px" viewBox="0 0 256 256" enable-background="new 0 0 256 256" xml:space="preserve">
<metadata> Svg Vector Icons : http://www.onlinewebfonts.com/icon </metadata>
<g> <path stroke-width="4" fill-opacity="0" stroke="#000000"  d="M119.6,10h38.6v178.6c-19.8,3.8-34.3,5.3-50.1,5.3c-47.1,0-71.7-21.3-71.7-62.2c0-39.3,26.1-64.9,66.4-64.9 c6.3,0,11,0.5,16.8,2V10z M119.6,99.9c-4.2-1.4-8.6-2.1-13-2c-19.5,0-30.8,12-30.8,33.1c0,20.6,10.8,31.8,30.6,31.8 c4.3,0,7.8-0.2,13.3-1V99.9L119.6,99.9z"/> <path stroke-width="4" fill-opacity="0" stroke="#000000"  d="M219.6,69.6v89.5c0,30.8-2.3,45.6-9,58.4c-6.3,12.3-14.5,20.1-31.6,28.6l-35.8-17c17-8,25.3-15,30.6-25.8 c5.5-11,7.3-23.8,7.3-57.4V69.6L219.6,69.6L219.6,69.6z M181,10.2h38.6v39.6H181V10.2z"/></g>
</svg>